<?xml version="1.0" encoding="utf-8"?>
<!-- Generator: Adobe Illustrator 16.0.0, SVG Export Plug-In . SVG Version: 6.00 Build 0)  -->
<!DOCTYPE svg PUBLIC "-//W3C//DTD SVG 1.1//EN" "http://www.w3.org/Graphics/SVG/1.1/DTD/svg11.dtd">
<svg version="1.1" id="Layer_1" xmlns="http://www.w3.org/2000/svg" xmlns:xlink="http://www.w3.org/1999/xlink" x="0px" y="0px"
	 width="30px" height="30px" viewBox="0 0 30 30" enable-background="new 0 0 30 30" xml:space="preserve">
<path fill="#383E47" d="M20.799,18.597c0-3.033-1.828-3.976-4.249-5.169l-1.263-0.646c-2.427-1.197-2.628-1.404-2.628-2.473
	c0-1.79,1.859-1.983,2.654-1.983c0.778,0,2.592,0.193,2.592,1.983c0,0.83,0.674,1.5,1.502,1.5c0.829,0,1.332-0.67,1.332-1.5
	C20.738,7.645,19,5.772,16,5.403V3.577c0-0.828-0.671-1.5-1.5-1.5S13,2.749,13,3.577v1.875c0,0.056,0.196,0.104,0.202,0.157
	c-2.238,0.644-3.607,2.39-3.607,4.7c0,3.033,1.95,3.973,4.367,5.164l1.328,0.646c2.434,1.2,2.667,1.409,2.667,2.478
	c0,1.764-1.843,1.954-2.639,1.954c-0.795,0-2.641-0.19-2.641-1.954c0-0.828-0.672-1.5-1.499-1.5c-0.829,0-1.499,0.672-1.499,1.5
	c0,2.344,1.261,4.061,3.525,4.685C13.196,23.34,13,23.393,13,23.454v3c0,0.829,0.671,1.5,1.5,1.5s1.5-0.671,1.5-1.5v-2.979
	C19,23.111,20.799,21.249,20.799,18.597z"/>
</svg>
